<svg xmlns="http://www.w3.org/2000/svg" viewBox="0 0 100 100" width="100" height="100">
  <defs>
    <linearGradient id="grad" x1="0%" y1="0%" x2="100%" y2="100%">
      <stop offset="0%" style="stop-color:#001f5c;stop-opacity:1" />
      <stop offset="100%" style="stop-color:#0080ff;stop-opacity:1" />
    </linearGradient>
  </defs>
  
  <!-- Circular background -->
  <circle cx="50" cy="50" r="48" fill="url(#grad)"/>
  
  <!-- Stylized B -->
  <path d="M 30 25 L 30 75 Q 30 75 55 75 Q 75 75 75 62.5 Q 75 50 60 50 Q 75 50 75 37.5 Q 75 25 55 25 Z M 40 35 L 52 35 Q 65 35 65 42.5 Q 65 50 52 50 L 40 50 Z M 40 55 L 55 55 Q 68 55 68 62.5 Q 68 70 55 70 L 40 70 Z" fill="white"/>
  
  <!-- Small feather accent -->
  <path d="M 42 32 Q 42 28 46 28 Q 48 28 49 30 L 50 35 Q 51 38 49 40 Q 47 42 44 41 L 42 40 Q 42 38 42 35 Z" fill="#0080ff" opacity="0.7"/>
  
  <!-- Nest accent -->
  <ellipse cx="70" cy="70" rx="8" ry="4" fill="white" opacity="0.8"/>
  <ellipse cx="68" cy="68" rx="3" ry="4" fill="#0080ff" opacity="0.9"/>
  <ellipse cx="72" cy="68" rx="3" ry="4" fill="#0080ff" opacity="0.9"/>
</svg>
